<?xml version="1.0" standalone="no"?>
<!DOCTYPE svg PUBLIC "-//W3C//DTD SVG 20010904//EN"
 "http://www.w3.org/TR/2001/REC-SVG-20010904/DTD/svg10.dtd">
<svg version="1.0" xmlns="http://www.w3.org/2000/svg"
 width="1460.000000pt" height="1460.000000pt" viewBox="0 0 1460.000000 1460.000000"
 preserveAspectRatio="xMidYMid meet">
<metadata>
Created by potrace 1.14, written by Peter Selinger 2001-2017
</metadata>
<g transform="translate(0.000000,1460.000000) scale(0.100000,-0.100000)"
fill="#000000" stroke="none">
<path d="M3860 14365 c-886 -121 -1579 -841 -1670 -1734 -7 -70 -10 -1631 -10
-4906 l0 -4802 46 -7 c72 -9 1462 -7 1898 4 706 18 904 44 1311 177 293 96
418 164 542 296 183 196 278 470 328 945 28 262 37 608 33 1267 -4 693 -7 742
-57 859 -45 103 -157 183 -521 372 -272 140 -393 209 -522 296 -329 220 -517
472 -583 783 -19 85 -25 331 -10 394 l7 34 31 -57 c66 -123 233 -260 442 -362
269 -131 686 -241 1225 -324 229 -35 354 -71 510 -148 167 -82 369 -230 423
-311 l15 -23 66 69 c84 90 207 176 356 253 161 82 294 124 470 150 531 77 953
184 1252 315 194 85 417 261 478 378 14 26 28 47 31 47 3 0 9 -30 12 -67 35
-371 -85 -684 -362 -945 -163 -153 -322 -255 -728 -466 -402 -209 -492 -272
-542 -375 -63 -129 -66 -170 -66 -992 0 -770 7 -947 46 -1255 53 -418 153
-675 333 -856 120 -120 240 -184 498 -269 421 -139 628 -167 1338 -185 425
-11 1823 -13 1894 -4 l46 7 0 4828 c0 5305 4 4924 -60 5174 -175 680 -714
1219 -1393 1395 -251 64 -3 60 -3675 59 -2677 -1 -3356 -4 -3432 -14z m3940
-467 c101 -133 189 -276 259 -423 55 -115 128 -307 133 -351 l3 -29 -94 0 -94
0 -17 60 c-9 33 -24 75 -33 93 l-18 32 -288 0 -288 0 -30 -67 c-17 -38 -34
-80 -37 -95 l-6 -28 -101 0 c-117 0 -111 -17 -47 144 108 272 245 516 431 765
l70 93 34 -38 c18 -22 74 -92 123 -156z m-2902 -325 l2 -483 -75 0 -75 0 0
485 0 486 73 -3 72 -3 3 -482z m822 453 c85 -25 180 -63 180 -72 0 -8 -60
-124 -64 -124 -2 0 -29 11 -59 25 -120 55 -301 69 -377 30 -66 -34 -76 -95
-21 -134 16 -11 108 -48 205 -80 201 -69 277 -105 332 -162 39 -40 39 -40 39
-122 0 -96 -19 -142 -85 -201 -81 -73 -191 -102 -358 -93 -59 3 -141 15 -183
26 -82 22 -249 89 -249 100 0 6 78 152 85 160 2 2 17 -6 34 -18 129 -92 332
-133 476 -96 103 27 149 76 125 134 -17 41 -56 61 -211 105 -142 41 -260 96
-340 159 -90 72 -109 138 -65 232 37 80 118 136 225 156 76 13 218 2 311 -25z
m530 -361 l0 -395 335 0 335 0 0 -85 0 -85 -415 0 -415 0 0 480 0 480 80 0 80
0 0 -395z m3309 274 c36 -111 232 -807 235 -829 1 -12 -15 -15 -89 -15 l-89 0
-13 95 c-12 86 -65 303 -92 373 -11 29 -11 29 -96 -90 -92 -130 -202 -268
-282 -357 -51 -58 -51 -58 -77 -41 -52 35 -250 279 -361 448 -21 31 -41 57
-45 57 -4 0 -34 -105 -65 -232 -32 -128 -61 -240 -65 -248 -12 -22 -170 -16
-170 7 0 8 18 72 40 142 23 69 82 275 131 456 50 182 94 334 98 338 5 4 16
-14 26 -40 82 -218 249 -504 408 -697 l23 -29 68 84 c155 193 256 372 332 593
24 71 40 103 45 94 4 -8 21 -57 38 -109z m-6683 -1011 c50 -40 53 -44 38 -63
-77 -105 -110 -180 -126 -295 -13 -87 1 -136 46 -165 57 -37 104 12 221 230
82 153 140 229 215 278 56 38 188 6 252 -60 59 -61 81 -122 86 -239 5 -126
-18 -228 -82 -361 -44 -90 -116 -205 -136 -218 -9 -6 -140 89 -140 101 0 3 23
33 52 67 131 157 193 408 127 517 -35 56 -95 64 -140 17 -11 -12 -46 -71 -76
-132 -74 -147 -114 -207 -187 -283 -85 -89 -134 -116 -194 -108 -93 13 -159
82 -188 198 -25 98 -4 238 57 368 29 63 107 190 116 190 2 0 29 -19 59 -42z
m8808 -88 c21 -33 35 -64 32 -69 -8 -12 -802 -521 -812 -521 -5 1 -26 28 -46
60 l-37 60 27 20 c41 30 786 509 793 509 3 1 23 -26 43 -59z m215 -672 c-130
-299 -318 -646 -435 -805 l-16 -23 274 0 275 0 7 -52 c3 -29 6 -70 6 -90 l0
-38 -487 -2 c-269 -2 -491 -1 -495 2 -4 3 20 28 53 55 129 106 283 291 392
470 67 111 171 305 166 310 -2 2 -155 -43 -339 -99 l-335 -103 -5 91 c-3 50
-4 96 -2 101 3 11 917 272 959 274 21 1 20 -2 -18 -91z m-8420 -460 c1 -61 3
-59 -69 -74 -19 -3 -54 -15 -77 -25 l-43 -18 2 -288 3 -287 81 -26 82 -25 6
-44 c10 -76 7 -141 -7 -141 -42 0 -380 144 -518 220 -158 88 -439 285 -439
308 0 12 139 118 253 195 119 79 408 225 587 297 l125 50 7 -43 c3 -23 7 -68
7 -99z m3709 -1518 c-85 -57 -126 -120 -135 -205 -10 -99 39 -191 126 -238 66
-36 125 -43 192 -23 108 31 179 126 179 238 0 32 -7 75 -15 96 -18 42 -77 107
-117 128 l-28 15 0 810 c0 714 2 810 15 805 8 -3 318 -231 689 -506 l675 -501
-25 -52 c-34 -75 -33 -140 6 -201 40 -63 90 -85 188 -86 82 0 137 18 168 55
l20 25 96 -80 c163 -135 199 -188 219 -321 28 -182 -52 -360 -230 -512 -189
-162 -480 -296 -912 -422 -117 -34 -199 -75 -199 -101 0 -7 19 -34 42 -61 58
-67 82 -125 75 -182 -4 -41 -12 -52 -66 -103 -52 -47 -105 -78 -324 -187 -289
-144 -385 -209 -452 -305 -21 -30 -46 -78 -55 -107 -19 -54 -23 -54 -35 -2 -3
18 -23 58 -44 90 -74 115 -162 175 -491 339 -333 166 -389 217 -360 331 12 50
33 85 88 147 l35 39 -29 23 c-45 36 -79 50 -227 94 -212 62 -378 125 -542 205
-265 129 -424 264 -506 430 -41 83 -44 93 -47 190 -7 185 28 253 208 406 l105
88 30 -29 c40 -39 74 -50 152 -50 92 0 138 16 178 62 56 66 64 166 19 235 -8
12 -14 28 -14 35 1 7 308 241 683 519 l682 506 3 -811 2 -811 -22 -15z m-4487
684 c33 -19 59 -38 59 -41 0 -3 -13 -29 -29 -57 -33 -58 -58 -127 -67 -186
l-7 -40 407 0 406 0 0 -78 0 -79 -152 -6 c-83 -4 -263 -7 -400 -7 l-248 0 0
-32 c0 -44 22 -120 54 -191 14 -32 26 -59 26 -62 0 -2 -26 -20 -57 -40 l-58
-36 -17 21 c-23 28 -75 164 -94 248 -25 106 -15 311 21 422 27 85 80 200 91
200 4 0 33 -16 65 -36z m9273 -71 c3 -21 6 -158 6 -304 l0 -267 -41 -82 c-89
-177 -249 -280 -434 -280 -175 0 -365 104 -439 240 -50 92 -65 244 -58 598 l2
132 479 0 478 0 7 -37z m-8504 -998 l0 -75 -485 0 -485 0 0 75 0 75 485 0 485
0 0 -75z m1493 -147 c14 -258 88 -431 248 -582 81 -77 137 -115 265 -179 163
-82 342 -135 779 -232 452 -101 672 -200 846 -382 74 -78 159 -200 180 -261 6
-18 14 -32 18 -32 5 0 16 19 27 43 34 75 130 211 195 273 175 166 382 257 809
354 546 124 741 188 917 303 256 166 376 374 390 672 3 66 9 126 13 133 5 10
16 -1 38 -35 114 -178 206 -470 243 -768 15 -129 16 -364 1 -435 -15 -69 -78
-154 -194 -266 -248 -238 -555 -362 -1129 -454 -549 -89 -698 -121 -864 -187
-149 -59 -239 -117 -349 -226 -54 -54 -102 -94 -106 -90 -3 4 -25 31 -48 60
-52 63 -163 149 -262 201 -165 88 -362 141 -778 207 -600 97 -793 147 -1036
273 -230 118 -460 343 -492 479 -16 70 -18 285 -3 421 23 211 88 470 160 630
32 72 110 202 120 202 3 0 9 -55 12 -122z m6637 -58 c138 -22 292 -126 347
-233 61 -122 88 -361 55 -497 -22 -88 -91 -220 -143 -272 -175 -175 -477 -169
-660 15 -112 112 -155 246 -146 456 8 197 49 305 152 406 63 62 136 102 218
120 78 17 96 17 177 5z m-8322 -36 c179 -89 227 -372 119 -689 -20 -58 -61
-150 -72 -163 -4 -5 -155 78 -155 85 0 3 16 30 35 61 71 117 107 285 86 407
-21 118 -59 169 -124 167 -47 -1 -75 -37 -103 -132 -56 -186 -85 -264 -118
-323 -41 -74 -107 -152 -147 -172 -62 -32 -155 -8 -216 56 -110 116 -122 346
-32 581 17 43 34 80 39 83 5 3 36 -8 70 -25 l60 -30 -24 -48 c-73 -146 -82
-351 -18 -413 39 -39 64 -43 96 -18 36 28 48 55 102 221 73 225 122 319 187
359 49 29 149 26 215 -7z m180 -1069 l-3 -78 -67 -17 c-126 -33 -200 -80 -273
-176 l-35 -46 0 -144 0 -144 195 0 195 0 0 -85 0 -85 -444 0 -444 0 -11 33
c-52 163 -74 307 -69 448 3 91 8 124 26 164 47 103 114 146 237 153 114 6 158
-9 224 -74 30 -30 57 -54 61 -54 4 0 15 10 26 21 34 38 138 107 194 129 67 26
172 49 183 40 4 -4 7 -42 5 -85z m8512 -360 c0 -3 -23 -40 -51 -81 -81 -120
-245 -320 -355 -431 l-100 -103 253 0 253 0 0 -80 c0 -55 -4 -82 -12 -85 -7
-3 -224 -4 -482 -3 l-468 3 196 169 c108 92 229 204 270 247 75 79 176 207
176 222 0 5 -146 7 -325 5 -263 -2 -326 0 -330 10 -7 20 -6 118 2 125 8 8 973
9 973 2z m-9312 -902 l2 -303 29 0 c15 0 62 -3 104 -6 l75 -7 4 239 c2 181 7
245 17 264 29 51 76 100 98 100 11 0 43 -19 69 -43 l48 -44 -28 -36 c-46 -60
-56 -113 -56 -297 l0 -167 53 -7 c28 -3 93 -6 143 -6 l90 0 -4 310 -5 310 87
0 87 0 -7 -392 c-4 -216 -8 -395 -10 -397 -2 -2 -217 0 -479 4 l-475 7 0 390
0 389 78 -3 77 -3 3 -302z m9302 -668 l0 -395 -75 0 -75 0 0 310 0 310 -110 0
-110 0 0 -217 c0 -126 -5 -235 -11 -257 -6 -21 -30 -59 -53 -84 -42 -44 -43
-44 -72 -29 -16 8 -42 29 -59 46 -27 29 -28 33 -15 54 58 90 60 99 60 299 l0
188 -140 0 -140 0 0 -305 0 -305 -34 0 c-18 0 -54 -3 -80 -6 l-46 -7 0 390 c0
214 3 393 7 396 3 4 219 7 480 7 l473 0 0 -395z m-9314 14 c230 -79 432 -169
581 -260 80 -48 243 -169 243 -180 0 -8 -158 -127 -225 -170 -86 -55 -206
-119 -313 -168 -118 -53 -391 -151 -421 -151 -16 0 -18 9 -14 78 3 42 6 82 8
88 1 5 23 16 46 23 104 31 322 117 420 167 120 61 225 132 212 144 -4 4 -53
33 -108 63 -123 67 -271 131 -438 188 l-127 44 0 88 c0 48 4 87 9 87 5 0 62
-18 127 -41z m8584 -726 c38 -21 70 -41 70 -45 0 -4 -16 -33 -35 -65 -134
-225 -112 -573 37 -573 55 0 76 33 129 210 61 199 104 285 184 368 l61 62 61
0 c52 0 68 -5 109 -32 57 -38 108 -116 123 -190 15 -68 13 -200 -3 -278 -15
-69 -72 -226 -85 -235 -5 -2 -34 9 -66 26 -63 35 -62 28 -21 125 67 160 52
359 -29 396 -35 16 -71 2 -94 -36 -12 -19 -48 -114 -82 -212 -66 -197 -95
-258 -150 -314 -29 -30 -48 -40 -84 -45 -135 -21 -252 55 -306 198 -22 56 -24
77 -23 212 0 133 4 160 28 240 30 101 84 225 98 225 5 0 40 -17 78 -37z
m-7770 -418 l0 -75 -482 2 -483 3 -3 59 c-2 32 -1 65 2 72 4 12 90 14 486 14
l480 0 0 -75z m0 -253 c0 -4 -78 -73 -172 -152 -202 -169 -342 -305 -421 -410
l-56 -75 329 -3 330 -2 0 -69 0 -68 -307 -6 c-467 -10 -673 -9 -673 4 0 35
252 350 401 501 l116 118 -259 0 -258 0 0 78 c0 43 3 82 7 85 9 10 963 9 963
-1z m8515 -527 l0 -70 -487 -3 -488 -2 0 75 0 75 488 -2 487 -3 0 -70z m-864
-334 c224 -85 366 -153 522 -247 97 -59 292 -200 321 -233 17 -19 18 -23 4
-34 -265 -210 -476 -331 -813 -467 l-140 -57 -8 90 c-5 49 -6 94 -4 101 3 6
31 17 63 24 33 6 74 21 92 32 l32 20 0 280 0 281 -37 15 c-20 9 -58 21 -84 27
l-47 11 -6 60 c-7 65 -8 136 -2 136 2 0 50 -18 107 -39z m-7964 -116 c178 -42
287 -152 323 -327 15 -77 1 -152 -47 -248 -87 -172 -268 -241 -555 -212 -105
11 -338 55 -360 69 -5 2 -8 41 -8 87 l0 83 83 -24 c134 -39 267 -56 391 -50
142 6 205 27 267 87 77 74 87 160 31 263 -53 98 -167 144 -330 134 -77 -6
-375 -63 -427 -84 -13 -4 -15 10 -15 84 l0 89 153 28 c83 15 159 29 167 31 49
9 273 3 327 -10z"/>
<path d="M7607 13792 c-52 -63 -100 -151 -148 -268 -21 -53 -39 -98 -39 -100
0 -2 106 -4 236 -4 l235 0 -6 23 c-14 44 -72 175 -107 238 -35 61 -112 159
-126 159 -4 0 -24 -21 -45 -48z"/>
<path d="M3030 11482 c-118 -58 -240 -138 -247 -159 -9 -25 314 -223 364 -223
10 0 13 50 13 220 0 121 -3 220 -8 220 -4 0 -59 -26 -122 -58z"/>
<path d="M11182 10448 c3 -213 4 -225 26 -261 51 -81 202 -157 313 -157 73 0
155 35 209 89 87 88 104 157 94 389 l-7 162 -319 0 -320 0 4 -222z"/>
<path d="M11439 9434 c-55 -17 -139 -88 -173 -148 -16 -27 -30 -79 -42 -154
-15 -96 -16 -125 -6 -188 17 -105 46 -166 104 -219 61 -55 129 -78 225 -78 77
1 164 32 211 76 82 77 127 318 87 472 -49 187 -229 294 -406 239z"/>
<path d="M2712 8350 c-18 -11 -41 -34 -53 -52 -18 -30 -20 -43 -15 -133 4 -55
14 -138 24 -185 l18 -85 128 -3 129 -3 -5 206 c-4 184 -7 207 -24 226 -47 52
-141 66 -202 29z"/>
<path d="M11310 3815 l0 -225 24 10 c116 44 360 192 353 214 -10 32 -244 176
-349 215 l-28 11 0 -225z"/>
<path d="M6793 6619 c-17 -5 -45 -23 -61 -39 l-30 -29 -7 -228 c-4 -125 -4
-595 0 -1043 7 -862 2 -1036 -36 -1259 -58 -339 -205 -588 -487 -819 -53 -44
-108 -90 -122 -101 l-25 -21 30 6 c74 16 258 80 344 120 135 63 245 140 338
237 93 97 157 199 212 342 134 341 144 474 138 1829 l-4 940 -32 27 c-17 14
-49 31 -70 38 -45 13 -142 13 -188 0z"/>
<path d="M7593 6606 c-28 -14 -56 -33 -61 -43 -13 -24 -22 -1655 -11 -1998 11
-350 29 -482 91 -668 42 -127 126 -300 182 -374 99 -131 258 -250 437 -330 95
-41 328 -118 336 -110 2 3 -38 38 -89 79 -309 249 -463 489 -527 821 -43 225
-45 291 -46 1447 0 1054 -1 1107 -18 1134 -44 67 -194 88 -294 42z"/>
<path d="M9322 2337 c-111 -114 -144 -168 -184 -312 -22 -78 -22 -90 -19 -510
4 -570 -13 -781 -74 -900 -80 -156 -164 -219 -380 -286 -47 -15 -92 -19 -207
-19 -82 0 -148 3 -148 6 0 3 25 44 57 91 68 103 127 237 159 361 41 160 47
279 40 747 -8 564 -11 548 179 870 l30 50 -50 -35 c-90 -63 -199 -180 -233
-250 -59 -120 -64 -160 -68 -635 -4 -481 -12 -585 -55 -753 -66 -258 -107
-342 -226 -458 -46 -45 -99 -92 -118 -105 -19 -13 -35 -28 -35 -32 0 -5 66 -6
148 -2 359 15 497 35 640 91 179 71 355 213 411 334 72 154 81 250 81 891 0
308 4 538 10 570 6 29 42 127 81 218 38 90 68 165 66 167 -2 2 -49 -43 -105
-99z"/>
<path d="M9624 2378 c-71 -77 -128 -164 -148 -226 -29 -90 -37 -210 -46 -662
-10 -487 -18 -640 -50 -872 -25 -183 -57 -310 -104 -411 -33 -73 -34 -77 -11
-59 87 69 190 232 241 380 58 168 62 226 74 902 6 338 15 644 20 680 5 36 27
125 49 198 21 72 37 132 36 132 -2 0 -29 -28 -61 -62z"/>
<path d="M5716 2364 c-76 -92 -125 -190 -142 -282 -11 -55 -17 -215 -24 -552
-15 -776 -48 -1102 -135 -1318 -19 -47 -33 -87 -31 -89 2 -3 31 30 64 73 70
89 129 205 166 322 52 165 56 223 66 872 5 333 12 637 15 675 3 39 23 137 44
218 21 81 37 147 35 147 -2 0 -28 -30 -58 -66z"/>
<path d="M12518 2372 c-101 -104 -148 -190 -168 -308 -6 -39 -15 -259 -20
-499 -16 -796 -54 -1130 -155 -1351 -19 -42 -35 -79 -35 -82 0 -18 100 95 149
168 69 103 123 233 151 367 19 88 22 148 31 608 5 281 13 593 18 695 9 173 12
194 49 320 22 74 39 136 38 137 -1 1 -27 -23 -58 -55z"/>
<path d="M10169 2359 l-96 -59 -12 -105 c-6 -58 -16 -152 -22 -209 -11 -101
-13 -105 -40 -116 -15 -7 -48 -33 -73 -60 -41 -44 -61 -81 -183 -340 -68 -144
-84 -213 -23 -98 59 109 166 262 224 317 32 29 60 51 63 47 3 -3 -1 -72 -8
-153 -9 -92 -14 -276 -14 -483 0 -382 2 -399 81 -558 58 -118 119 -180 240
-243 105 -55 212 -92 332 -115 164 -31 558 -5 770 51 160 43 454 160 727 292
l80 38 -160 5 -160 5 -130 62 c-154 73 -205 87 -288 81 -77 -7 -134 -34 -205
-102 -52 -49 -112 -136 -112 -164 0 -7 24 5 53 27 88 67 138 84 253 89 89 4
114 0 220 -28 65 -17 123 -35 128 -40 13 -13 -142 -86 -233 -110 -233 -59
-498 -100 -652 -100 -402 0 -719 206 -805 525 -25 91 -30 346 -10 540 8 88 20
214 26 280 13 139 16 155 35 155 32 0 45 -42 45 -149 0 -125 17 -169 87 -231
71 -62 135 -81 273 -81 208 0 368 51 474 151 l53 50 44 -20 c31 -14 65 -20
119 -20 84 0 123 14 217 78 89 60 118 72 173 72 65 0 89 -23 155 -150 l46 -90
64 81 c73 93 75 71 -12 178 -46 56 -83 156 -83 220 0 20 9 55 20 79 19 41 19
42 0 42 -33 0 -99 -31 -104 -48 -2 -10 -12 -54 -22 -99 -9 -46 -19 -83 -21
-83 -2 0 -24 13 -47 29 l-43 30 -17 -35 c-22 -48 -101 -130 -153 -161 -56 -32
-154 -37 -196 -10 l-28 18 50 48 c47 44 51 50 51 94 0 96 -57 166 -153 187
-45 10 -80 10 -198 -4 -79 -9 -184 -21 -232 -26 -49 -6 -92 -12 -97 -15 -4 -2
-10 -28 -13 -58 -4 -29 -10 -68 -13 -86 l-7 -34 65 7 c84 9 175 -7 250 -45 57
-29 138 -93 138 -109 0 -11 -147 -95 -210 -120 -53 -21 -190 -40 -296 -40 -49
0 -68 5 -105 28 -94 60 -151 163 -163 295 -5 66 -42 140 -71 145 -11 2 -24 7
-28 12 -8 7 33 234 74 405 21 90 22 95 12 94 -5 0 -51 -27 -104 -60z m1012
-485 c46 -27 49 -62 11 -105 l-30 -33 -103 52 c-156 79 -164 88 -92 103 65 13
177 4 214 -17z"/>
<path d="M6684 2361 c-77 -54 -163 -140 -188 -189 -19 -37 -36 -143 -36 -232
0 -65 -1 -66 -46 -110 -62 -61 -152 -169 -268 -323 l-96 -129 0 344 0 344 34
125 c19 68 33 125 31 127 -4 4 -79 -77 -112 -120 -45 -59 -72 -130 -82 -218
-6 -47 -10 -274 -10 -505 1 -636 -27 -916 -112 -1103 -16 -36 -27 -67 -25 -69
7 -7 111 116 145 172 51 85 100 223 116 333 10 62 15 174 15 310 l0 213 166
180 c153 165 219 229 238 229 4 0 6 -222 3 -492 -5 -520 -10 -578 -55 -682
-25 -55 -85 -122 -131 -145 -20 -10 -79 -28 -131 -41 -52 -13 -118 -29 -146
-36 -54 -15 -139 -67 -214 -134 -44 -38 -44 -39 -18 -40 47 0 294 49 380 76
192 61 253 122 318 319 l24 70 17 -87 c24 -122 57 -189 128 -258 81 -79 169
-122 264 -128 145 -9 519 56 651 113 44 19 80 33 80 32 15 -56 79 -61 159 -13
54 33 61 35 80 21 12 -8 43 -15 71 -15 44 0 53 4 87 40 42 44 56 83 66 184 l6
69 -33 -6 c-18 -4 -36 -7 -41 -7 -5 0 -9 -26 -9 -59 0 -44 -5 -66 -22 -91 -28
-41 -50 -55 -72 -47 -13 5 -16 21 -16 81 l0 76 -32 -7 c-42 -8 -42 -7 -29 -31
25 -47 -1 -112 -56 -144 -30 -17 -30 -17 -58 12 -24 25 -27 34 -21 65 l7 37
-33 -25 c-102 -76 -347 -152 -558 -172 -83 -8 -188 9 -256 41 -119 56 -245
235 -296 419 -22 77 -22 96 -23 562 0 318 4 486 10 492 6 6 24 13 41 17 24 4
37 0 58 -18 26 -22 28 -30 37 -139 9 -130 41 -247 88 -320 97 -153 418 -143
656 21 44 30 128 72 171 84 19 6 22 1 28 -33 3 -22 18 -53 32 -70 35 -42 76
-47 149 -20 76 27 143 94 209 207 66 113 96 122 167 51 21 -21 47 -56 59 -79
11 -22 22 -40 23 -40 7 0 107 130 107 138 0 4 -18 54 -40 110 -24 63 -42 129
-47 174 l-8 73 -35 -55 c-29 -45 -35 -65 -38 -122 l-4 -68 -45 0 c-76 0 -107
-22 -177 -130 -36 -54 -77 -107 -92 -119 -35 -27 -82 -27 -124 2 -49 33 -57
74 -33 177 5 22 1 20 -44 -21 -110 -103 -246 -187 -373 -231 -120 -42 -306
-33 -423 21 -107 49 -126 88 -137 281 -5 74 -14 150 -20 168 -15 41 -55 62
-120 62 -47 0 -50 1 -50 26 0 30 43 198 66 259 9 22 40 77 70 123 30 47 53 86
51 88 -2 2 -35 -18 -73 -45z"/>
<path d="M7519 2383 c-23 -14 -27 -24 -32 -81 -3 -41 -12 -74 -24 -90 -49 -65
-83 -51 -83 35 0 51 -2 54 -22 51 -18 -2 -26 -15 -39 -67 -20 -77 -60 -124
-84 -100 -26 26 -30 100 -7 152 20 45 20 46 1 63 -18 16 -20 14 -50 -52 -27
-60 -30 -77 -26 -129 8 -82 21 -115 47 -115 25 0 140 76 140 92 0 6 8 4 18 -5
43 -39 133 -10 179 55 24 35 28 51 27 102 -1 34 -6 71 -10 83 -9 21 -10 21
-35 6z"/>
<path d="M4828 2298 c-60 -60 -105 -115 -125 -154 -62 -117 -65 -139 -73 -689
-9 -539 -11 -567 -70 -805 -47 -188 -92 -272 -208 -392 l-95 -98 119 0 c404 0
621 72 806 268 76 81 119 162 142 272 24 110 38 489 31 840 -9 425 -3 474 73
679 34 91 60 166 58 168 -2 3 -38 -35 -80 -84 -86 -99 -125 -171 -158 -288
-22 -78 -22 -95 -23 -580 -2 -677 -14 -777 -117 -938 -36 -57 -124 -120 -206
-148 -52 -18 -359 -55 -370 -45 -2 3 14 28 36 58 77 103 130 239 157 399 29
178 40 512 26 807 -18 378 -5 455 115 695 35 70 62 127 59 127 -2 0 -46 -42
-97 -92z"/>
<path d="M3098 2364 c-26 -14 -28 -19 -28 -79 0 -61 -2 -68 -35 -103 l-35 -37
-20 24 c-14 16 -20 38 -20 72 0 46 -1 48 -22 40 -16 -6 -25 -21 -33 -62 -18
-89 -62 -134 -92 -93 -18 25 -16 106 3 148 15 31 15 36 1 56 l-15 22 -17 -33
c-49 -94 -66 -184 -43 -234 21 -46 121 -33 171 23 17 19 20 19 45 5 60 -34
173 35 188 115 7 38 -1 132 -13 143 -5 4 -20 1 -35 -7z"/>
<path d="M4263 2359 c-41 -20 -111 -94 -100 -105 3 -3 32 8 66 25 64 33 100
38 119 19 19 -19 14 -62 -13 -98 -14 -19 -25 -35 -25 -37 0 -2 18 9 40 23 46
31 80 80 80 117 0 65 -90 96 -167 56z"/>
<path d="M12193 2303 c-79 -79 -131 -160 -152 -238 -6 -22 -15 -152 -21 -290
-15 -360 -26 -475 -60 -606 -37 -140 -71 -210 -152 -318 -103 -136 -98 -127
-58 -106 66 33 156 103 217 168 136 146 163 268 183 842 6 182 15 299 24 335
28 105 68 215 92 253 38 59 11 44 -73 -40z"/>
<path d="M7928 2331 c-42 -27 -118 -112 -118 -133 0 -4 40 12 90 37 98 49 128
54 153 27 32 -35 20 -89 -32 -146 -22 -25 -23 -28 -6 -22 64 23 146 114 147
165 1 37 -25 79 -58 91 -52 20 -127 12 -176 -19z"/>
<path d="M6745 2263 c-22 -14 -41 -27 -43 -28 -6 -5 69 -115 77 -115 5 0 26
21 46 46 l38 46 -39 39 -39 39 -40 -27z"/>
<path d="M6948 2263 c-21 -14 -38 -30 -38 -36 0 -14 60 -107 70 -107 10 0 80
77 80 88 0 4 -17 24 -37 44 l-38 36 -37 -25z"/>
<path d="M10292 2216 c-18 -13 -35 -26 -38 -29 -6 -6 66 -117 75 -116 3 0 24
21 45 45 l39 45 -38 39 c-22 22 -42 40 -45 40 -3 -1 -20 -11 -38 -24z"/>
<path d="M10457 2215 c-20 -14 -37 -29 -37 -33 0 -4 16 -31 36 -61 l36 -53 28
27 c15 14 33 37 40 51 13 22 11 27 -20 59 -19 19 -36 35 -40 35 -3 0 -22 -11
-43 -25z"/>
<path d="M2328 2204 l-37 -27 22 -37 c54 -89 47 -87 88 -34 l37 48 -31 38
c-17 21 -33 38 -36 38 -4 0 -23 -12 -43 -26z"/>
<path d="M2504 2188 c-16 -12 -33 -25 -38 -29 -8 -7 53 -119 65 -119 3 0 20
20 38 45 l32 45 -20 28 c-36 51 -45 55 -77 30z"/>
<path d="M4412 2089 c-48 -35 -49 -24 13 -117 l23 -33 40 47 40 48 -35 43
c-19 24 -36 43 -37 43 -1 0 -21 -14 -44 -31z"/>
<path d="M3530 2100 c-73 -7 -126 -29 -160 -65 l-23 -24 54 6 c30 3 76 14 102
24 70 28 105 25 113 -8 11 -42 -15 -53 -130 -53 -58 -1 -114 -6 -131 -14 -17
-7 -47 -37 -70 -72 -56 -82 -74 -89 -225 -89 -104 0 -125 3 -125 15 0 23 41
37 141 49 50 6 109 18 130 26 37 15 31 15 -106 11 -196 -7 -280 -34 -280 -91
0 -35 33 -56 107 -67 153 -22 334 31 417 122 31 35 37 37 113 44 155 12 243
56 243 120 0 18 -6 39 -12 48 -16 20 -75 27 -158 18z"/>
<path d="M7301 1962 c-7 -13 -6 -31 2 -57 10 -34 9 -39 -12 -56 -29 -24 -44
-24 -122 1 -35 10 -64 18 -66 16 -2 -1 5 -10 14 -18 44 -37 151 -50 201 -24
43 23 86 72 78 92 -6 15 -8 15 -27 -2 -20 -18 -21 -18 -35 1 -19 25 -18 32 6
40 11 4 18 11 15 16 -10 16 -44 10 -54 -9z"/>
<path d="M4108 1833 l-48 -38 0 -105 c0 -58 -3 -115 -6 -127 -13 -47 -68 -37
-101 17 l-17 30 -31 -29 c-43 -41 -67 -51 -124 -51 -41 0 -51 4 -56 20 -7 21
7 53 38 87 11 13 18 25 15 28 -2 3 -78 -27 -169 -67 -177 -77 -259 -97 -259
-62 0 11 9 51 19 90 l18 72 -81 -53 c-100 -65 -250 -147 -336 -184 -132 -57
-229 -64 -306 -24 -60 31 -100 91 -135 205 -41 131 -57 148 -142 148 -54 0
-70 -4 -103 -28 -94 -69 -172 -210 -230 -419 -28 -104 -36 -153 -41 -260 -4
-79 -2 -133 3 -133 5 0 19 48 31 108 46 225 91 348 179 489 47 76 94 123 123
123 35 0 48 -31 54 -128 6 -102 21 -137 82 -190 48 -43 94 -55 189 -50 97 6
224 52 434 159 72 37 132 65 132 63 0 -3 -5 -14 -10 -25 -14 -25 10 -71 45
-87 57 -26 95 -14 263 86 56 33 102 58 103 54 0 -4 0 -25 -1 -47 -2 -70 45
-102 140 -93 38 4 60 14 101 47 49 39 53 40 65 23 7 -11 28 -25 45 -32 30 -13
33 -12 58 16 l27 30 31 -33 c35 -38 76 -43 137 -18 33 14 38 14 68 -5 21 -13
51 -20 82 -20 43 0 53 4 86 38 54 53 80 143 80 273 0 54 -2 99 -5 99 -2 0 -25
-10 -50 -22 l-46 -22 8 -41 c4 -22 8 -70 8 -107 0 -77 -25 -123 -66 -123 -20
0 -25 6 -29 34 -5 31 -6 33 -19 17 -24 -28 -67 -46 -114 -46 -43 0 -45 2 -63
43 -13 30 -19 80 -23 175 l-6 134 -47 -39z"/>
<path d="M11607 1342 c-2 -4 -7 -19 -11 -34 -3 -16 -13 -28 -21 -28 -8 0 -23
-10 -35 -22 -24 -26 -25 -74 -6 -188 11 -68 13 -72 19 -40 3 19 8 64 12 100 6
77 19 92 82 100 46 5 48 6 51 40 3 33 0 37 -42 57 -25 13 -47 19 -49 15z"/>
<path d="M4053 1268 c-18 -13 -33 -27 -33 -32 0 -5 14 -33 32 -64 l31 -55 29
34 c49 59 50 62 17 102 -17 21 -34 37 -37 37 -4 0 -22 -10 -39 -22z"/>
<path d="M4219 1245 c-18 -14 -34 -29 -34 -33 0 -11 59 -112 65 -112 9 0 70
83 70 95 0 6 -15 25 -33 43 l-33 32 -35 -25z"/>
<path d="M2536 1153 l-30 -25 30 -55 c16 -30 32 -56 35 -58 3 -2 22 17 41 43
l36 46 -30 38 c-16 21 -35 38 -41 38 -7 0 -25 -12 -41 -27z"/>
<path d="M8132 1147 c-5 -20 -18 -37 -35 -45 -45 -22 -50 -43 -37 -155 19
-155 26 -165 33 -52 3 55 9 110 13 122 7 24 50 43 95 43 27 0 29 3 29 38 0 35
-3 40 -45 60 l-45 22 -8 -33z"/>
<path d="M2701 1130 l-33 -28 33 -56 c19 -31 36 -56 39 -56 6 1 70 85 70 93 0
9 -61 77 -69 77 -3 -1 -21 -14 -40 -30z"/>
<path d="M9815 1098 c-4 -9 -16 -19 -29 -22 -12 -3 -29 -21 -39 -42 -17 -34
-17 -38 -1 -55 15 -17 15 -20 -3 -46 -25 -35 -40 -82 -35 -106 2 -9 17 -24 33
-33 25 -12 36 -13 64 -2 42 14 43 21 10 36 -44 20 -24 98 37 144 35 27 36 28
23 63 -6 20 -21 46 -33 57 -18 19 -22 20 -27 6z"/>
<path d="M3011 1013 c-53 -28 -72 -61 -74 -129 -3 -111 15 -133 126 -149 26
-4 47 -10 47 -13 0 -3 -15 -33 -34 -66 -106 -189 -298 -274 -731 -326 -93 -11
-197 -24 -230 -28 -52 -6 -29 -10 175 -26 276 -22 360 -19 448 16 108 44 173
90 289 203 83 82 118 124 137 165 39 85 57 171 54 251 -3 64 -6 74 -29 91 -38
29 -134 34 -178 11z"/>
<path d="M7077 975 c-20 -14 -37 -28 -37 -31 0 -2 17 -30 37 -60 l38 -57 42
49 43 48 -37 38 c-20 21 -40 38 -43 38 -3 0 -22 -11 -43 -25z"/>
<path d="M7279 974 c-19 -14 -33 -30 -31 -35 1 -6 17 -33 35 -59 l33 -49 42
42 c23 24 42 47 42 53 0 13 -63 74 -76 74 -6 0 -26 -12 -45 -26z"/>
<path d="M10707 968 c-42 -19 -47 -24 -47 -52 1 -17 -2 -52 -6 -77 -8 -56 0
-63 64 -53 39 5 55 15 95 55 26 27 47 53 47 58 0 5 -23 -6 -51 -25 -70 -47
-128 -44 -85 5 23 27 56 111 43 110 -7 0 -33 -10 -60 -21z"/>
<path d="M3985 937 l-37 -32 34 -58 35 -58 37 45 c20 24 36 48 36 51 0 4 -15
25 -34 45 l-35 38 -36 -31z"/>
<path d="M3629 888 l-56 -31 -16 -82 c-29 -155 -91 -251 -226 -351 -127 -94
-186 -122 -365 -171 -88 -24 -162 -46 -164 -47 -10 -11 199 -41 288 -41 100 0
108 1 167 34 95 51 186 149 236 253 23 48 45 87 50 87 4 1 7 -22 7 -51 0 -174
96 -281 277 -308 93 -15 151 1 255 69 82 53 116 91 147 164 21 50 30 170 13
181 -5 3 -39 0 -76 -6 l-66 -11 7 -36 c5 -20 8 -60 7 -89 -1 -46 -5 -57 -34
-87 -44 -45 -87 -59 -185 -59 -92 -1 -143 20 -190 76 -51 61 -58 91 -51 223 3
66 12 163 20 215 9 52 14 95 13 96 -1 2 -27 -11 -58 -28z"/>
<path d="M11708 253 c-21 -14 -38 -30 -38 -36 0 -14 60 -107 69 -107 11 0 81
75 81 86 0 5 -17 26 -37 46 l-38 36 -37 -25z"/>
<path d="M8665 174 c-11 -9 -28 -22 -38 -29 -18 -12 -17 -16 19 -69 20 -31 40
-55 44 -54 3 2 24 22 45 46 l38 43 -38 39 c-44 45 -43 45 -70 24z"/>
<path d="M4848 154 l-37 -27 26 -46 c43 -76 44 -77 85 -24 l36 47 -32 38 c-17
21 -33 38 -36 38 -3 0 -22 -12 -42 -26z"/>
</g>
</svg>
